<svg width="24" height="24" viewBox="0 0 24 24" fill="none" xmlns="http://www.w3.org/2000/svg">
<g clip-path="url(#clip0_36_1924)">
<path d="M0 3.20169C0 2.42947 0.270278 1.79241 0.810811 1.29049C1.35134 0.788555 2.05406 0.537598 2.91892 0.537598C3.76835 0.537598 4.45559 0.784686 4.9807 1.27891C5.52123 1.78856 5.79151 2.45264 5.79151 3.27119C5.79151 4.0125 5.52897 4.63025 5.00386 5.12447C4.46333 5.63412 3.7529 5.88895 2.87259 5.88895H2.84942C1.99999 5.88895 1.31275 5.63412 0.787645 5.12447C0.262541 4.61482 0 3.97388 0 3.20169ZM0.301158 23.472V7.99706H5.44402V23.472H0.301158ZM8.29344 23.472H13.4363V14.831C13.4363 14.2905 13.4981 13.8735 13.6216 13.5801C13.8378 13.055 14.166 12.6109 14.6062 12.248C15.0463 11.8851 15.5984 11.7036 16.2626 11.7036C17.9923 11.7036 18.8571 12.8696 18.8571 15.2017V23.472H24V14.5994C24 12.3137 23.4595 10.5801 22.3784 9.3986C21.2973 8.21713 19.8687 7.6264 18.0927 7.6264C16.1004 7.6264 14.5483 8.48354 13.4363 10.1978V10.2442H13.4131L13.4363 10.1978V7.99706H8.29344C8.32432 8.49126 8.33977 10.0279 8.33977 12.6071C8.33977 15.1862 8.32432 18.8079 8.29344 23.472Z" fill="black"/>
</g>
<defs>
<clipPath id="clip0_36_1924">
<rect width="24" height="24" fill="white"/>
</clipPath>
</defs>
</svg>
