<svg width="16" height="16" viewBox="0 0 16 16" fill="none" xmlns="http://www.w3.org/2000/svg">
<path d="M8.66666 13.3326C8.6034 13.3332 8.53242 13.3332 8.45135 13.3332H4.79794C4.05266 13.3332 3.67947 13.3332 3.39453 13.188C3.14365 13.0602 2.93982 12.856 2.81199 12.6051C2.66666 12.3199 2.66666 11.9467 2.66666 11.2V4.79997C2.66666 4.05323 2.66666 3.67958 2.81199 3.39437C2.93982 3.14349 3.14365 2.93966 3.39453 2.81183C3.67974 2.6665 4.05339 2.6665 4.80013 2.6665H11.2001C11.9469 2.6665 12.3197 2.6665 12.6049 2.81183C12.8558 2.93966 13.0603 3.14349 13.1881 3.39437C13.3333 3.67931 13.3333 4.0525 13.3333 4.79778V8.44965C13.3333 8.53138 13.3333 8.60286 13.3327 8.6665M8.66666 13.3326C8.8571 13.3309 8.97755 13.324 9.09256 13.2964C9.22861 13.2637 9.35857 13.2096 9.47786 13.1365C9.61242 13.0541 9.72773 12.9391 9.95833 12.7085L12.7087 9.95817C12.9393 9.72757 13.0539 9.61226 13.1364 9.4777C13.2095 9.35841 13.2636 9.22812 13.2962 9.09207C13.3238 8.97708 13.3309 8.85681 13.3327 8.6665M8.66666 13.3326V9.73324C8.66666 9.35987 8.66666 9.17304 8.73933 9.03044C8.80324 8.90499 8.90515 8.80308 9.0306 8.73917C9.1732 8.6665 9.3597 8.6665 9.73307 8.6665H13.3327" stroke="#A8ADB8" stroke-linecap="round" stroke-linejoin="round"/>
</svg>
