<svg width="54" height="40" viewBox="0 0 54 40" fill="none" xmlns="http://www.w3.org/2000/svg">
<path d="M35.944 15.8767C35.896 14.8119 35.7239 14.0833 35.4799 13.4468C35.2238 12.7902 34.8838 12.2298 34.3277 11.6773C33.7715 11.1249 33.2154 10.7766 32.5593 10.5244C31.9232 10.2762 31.195 10.1081 30.1308 10.06C29.0626 10.012 28.7225 10 26.01 10C23.2935 10 22.9534 10.012 21.8892 10.06C20.825 10.1081 20.0968 10.2802 19.4607 10.5244C18.8006 10.7806 18.2404 11.1209 17.6883 11.6773C17.1362 12.2338 16.7881 12.7902 16.5361 13.4468C16.292 14.0833 16.12 14.8119 16.072 15.8767C16.024 16.9456 16.012 17.2858 16.012 20C16.012 22.7182 16.024 23.0584 16.072 24.1233C16.12 25.1882 16.292 25.9167 16.5361 26.5532C16.7921 27.2098 17.1322 27.7702 17.6883 28.3227C18.2404 28.8791 18.8006 29.2234 19.4567 29.4756C20.0928 29.7238 20.821 29.8919 21.8852 29.94C22.9534 29.988 23.2935 30 26.006 30C28.7225 30 29.0626 29.988 30.1268 29.94C31.191 29.8919 31.9192 29.7198 32.5553 29.4756C33.2114 29.2194 33.7715 28.8791 34.3237 28.3227C34.8758 27.7662 35.2238 27.2098 35.4759 26.5532C35.7239 25.9167 35.892 25.1882 35.94 24.1233C35.988 23.0544 36 22.7142 36 20C36 17.2858 35.992 16.9416 35.944 15.8767ZM34.1476 24.0432C34.1036 25.02 33.9396 25.5524 33.8036 25.9007C33.6235 26.3651 33.4035 26.7014 33.0514 27.0536C32.6993 27.4059 32.3673 27.6181 31.8992 27.8062C31.5471 27.9424 31.015 28.1065 30.0428 28.1505C28.9906 28.1986 28.6745 28.2106 26.002 28.2106C23.3295 28.2106 23.0134 28.1986 21.9612 28.1505C20.985 28.1065 20.4529 27.9424 20.1048 27.8062C19.6407 27.6261 19.3047 27.4059 18.9526 27.0536C18.6005 26.7014 18.3885 26.3691 18.2004 25.9007C18.0644 25.5484 17.9004 25.016 17.8564 24.0432C17.8084 22.9904 17.7964 22.6741 17.7964 20C17.7964 17.3259 17.8084 17.0096 17.8564 15.9568C17.9004 14.98 18.0644 14.4476 18.2004 14.0993C18.3805 13.6349 18.6005 13.2986 18.9526 12.9464C19.3047 12.5941 19.6367 12.3819 20.1048 12.1938C20.4569 12.0576 20.989 11.8935 21.9612 11.8495C23.0134 11.8014 23.3295 11.7894 26.002 11.7894C28.6745 11.7894 28.9906 11.8014 30.0428 11.8495C31.019 11.8935 31.5511 12.0576 31.8992 12.1938C32.3633 12.3739 32.6993 12.5941 33.0514 12.9464C33.4035 13.2986 33.6155 13.6309 33.8036 14.0993C33.9396 14.4516 34.1036 14.984 34.1476 15.9568C34.1956 17.0096 34.2076 17.3259 34.2076 20C34.2076 22.6741 34.1916 22.9904 34.1476 24.0432Z" fill="#717B8E"/>
<path d="M26.002 14.8599C23.1614 14.8599 20.865 17.1617 20.865 20C20.865 22.8423 23.1655 25.1401 26.002 25.1401C28.8386 25.1401 31.139 22.8343 31.139 20C31.139 17.1577 28.8426 14.8599 26.002 14.8599ZM26.002 23.3347C24.1616 23.3347 22.6694 21.8415 22.6694 20C22.6694 18.1585 24.1616 16.6653 26.002 16.6653C27.8424 16.6653 29.3347 18.1585 29.3347 20C29.3347 21.8415 27.8424 23.3347 26.002 23.3347Z" fill="#717B8E"/>
<path d="M31.3391 15.8607C32.0019 15.8607 32.5393 15.323 32.5393 14.6597C32.5393 13.9965 32.0019 13.4588 31.3391 13.4588C30.6762 13.4588 30.1388 13.9965 30.1388 14.6597C30.1388 15.323 30.6762 15.8607 31.3391 15.8607Z" fill="#717B8E"/>
<path d="M16 20C16 22.7182 16.012 23.0584 16.06 24.1233C16.108 25.1882 16.2801 25.9167 16.5241 26.5532C16.7802 27.2098 17.1202 27.7702 17.6763 28.3227C18.2284 28.8751 18.7886 29.2234 19.4447 29.4756C20.0808 29.7238 20.809 29.8919 21.8732 29.94C22.9414 29.988 23.2815 30 25.994 30C28.7105 30 29.0506 29.988 30.1148 29.94C31.179 29.8919 31.9072 29.7198 32.5433 29.4756C33.1994 29.2194 33.7596 28.8791 34.3117 28.3227C34.8638 27.7702 35.2118 27.2098 35.4639 26.5532C35.7119 25.9167 35.88 25.1882 35.928 24.1233C35.976 23.0544 35.988 22.7142 35.988 20C35.988 17.2818 35.976 16.9416 35.928 15.8767C35.88 14.8119 35.7079 14.0833 35.4639 13.4468C35.2078 12.7902 34.8678 12.2298 34.3117 11.6773C33.7636 11.1209 33.2034 10.7766 32.5473 10.5244C31.9112 10.2762 31.183 10.1081 30.1188 10.06C29.0506 10.012 28.7105 10 25.998 10C23.2815 10 22.9414 10.012 21.8772 10.06C20.813 10.1081 20.0848 10.2802 19.4487 10.5244C18.7926 10.7806 18.2324 11.1209 17.6803 11.6773C17.1282 12.2338 16.7802 12.7902 16.5281 13.4468C16.2801 14.0833 16.108 14.8119 16.06 15.8767C16.012 16.9416 16 17.2818 16 20ZM17.8044 20C17.8044 17.3299 17.8164 17.0096 17.8644 15.9568C17.9084 14.98 18.0724 14.4476 18.2084 14.0993C18.3885 13.6349 18.6085 13.2986 18.9606 12.9464C19.3127 12.5941 19.6447 12.3819 20.1128 12.1938C20.4649 12.0576 20.997 11.8935 21.9692 11.8495C23.0214 11.8014 23.3375 11.7894 26.01 11.7894C28.6825 11.7894 28.9986 11.8014 30.0508 11.8495C31.027 11.8935 31.5591 12.0576 31.9072 12.1938C32.3713 12.3739 32.7073 12.5941 33.0594 12.9464C33.4115 13.2986 33.6235 13.6309 33.8116 14.0993C33.9476 14.4516 34.1116 14.984 34.1556 15.9568C34.2036 17.0096 34.2156 17.3259 34.2156 20C34.2156 22.6741 34.2036 22.9904 34.1556 24.0432C34.1116 25.02 33.9476 25.5524 33.8116 25.9007C33.6315 26.3651 33.4115 26.7014 33.0594 27.0536C32.7073 27.4059 32.3753 27.6181 31.9072 27.8062C31.5551 27.9424 31.023 28.1065 30.0508 28.1505C28.9986 28.1986 28.6825 28.2106 26.01 28.2106C23.3375 28.2106 23.0214 28.1986 21.9692 28.1505C20.993 28.1065 20.4609 27.9424 20.1128 27.8062C19.6487 27.6261 19.3127 27.4059 18.9606 27.0536C18.6085 26.7014 18.3965 26.3691 18.2084 25.9007C18.0724 25.5484 17.9084 25.016 17.8644 24.0432C17.8124 22.9904 17.8044 22.6701 17.8044 20Z" fill="#717B8E"/>
</svg>
