<svg width="54" height="40" viewBox="0 0 54 40" fill="none" xmlns="http://www.w3.org/2000/svg">
<g clip-path="url(#clip0_467_52)">
<path d="M27.0469 18.4628V18.4538V16.8142H23.0687C23.0895 17.3508 23.0998 18.5834 23.0998 20.5059C23.0998 22.6278 23.0873 25.5958 23.0622 29.41H27.0469V22.3592C27.0469 21.9011 27.0987 21.5305 27.2129 21.2591C27.213 21.2589 27.213 21.2587 27.2131 21.2585L27.0469 18.4628ZM27.0469 18.4628L27.0434 18.4697L26.9349 18.6868H27.1776H27.1969H27.3469V18.5429C28.2449 17.1804 29.4837 16.5053 31.0772 16.5053C32.5203 16.5053 33.6688 16.9835 34.538 17.9334C35.4046 18.8805 35.85 20.2829 35.85 22.1661V29.41H31.8643L27.0469 18.4628ZM16.7777 11.1853L16.7777 11.1853C17.1957 10.7972 17.7426 10.598 18.4324 10.598C19.1093 10.598 19.6428 10.7939 20.0477 11.1749C20.4648 11.5682 20.6763 12.0805 20.6763 12.726C20.6763 13.3037 20.4736 13.7785 20.0671 14.1612L20.067 14.1613C19.6494 14.555 19.0967 14.7575 18.3938 14.7575H18.3745C17.6989 14.7575 17.1659 14.5559 16.7608 14.1628C16.3541 13.768 16.15 13.2735 16.15 12.6681C16.15 12.0641 16.3594 11.5737 16.7777 11.1853ZM16.401 29.41V16.8142H20.3867V29.41H16.401Z" fill="#717B8E" stroke="white" stroke-width="0.3"/>
</g>
<defs>
<clipPath id="clip0_467_52">
<rect width="20" height="20" fill="white" transform="translate(16 10)"/>
</clipPath>
</defs>
</svg>
