<svg width="25" height="24" viewBox="0 0 25 24" fill="currentColor" xmlns="http://www.w3.org/2000/svg">
    <path d="M21.5571 7.18066C21.5664 7.39186 21.5664 7.59346 21.5664 7.80466C21.5756 14.2079 16.8712 21.5999 8.26793 21.5999C5.73048 21.5999 3.23933 20.8415 1.1001 19.4207C1.47053 19.4687 1.84096 19.4879 2.21139 19.4879C4.31358 19.4879 6.36021 18.7583 8.01789 17.4047C6.01756 17.3663 4.25802 16.0127 3.64681 14.0351C4.35063 14.1791 5.07296 14.1503 5.75826 13.9487C3.58198 13.5071 2.01691 11.5199 2.00765 9.20626C2.00765 9.18706 2.00765 9.16786 2.00765 9.14866C2.65591 9.52306 3.38751 9.73426 4.12837 9.75346C2.08174 8.33266 1.44275 5.50065 2.68369 3.28304C5.0637 6.31665 8.56427 8.15026 12.3241 8.35186C11.9445 6.67185 12.4631 4.90545 13.6762 3.71505C15.5561 1.88144 18.5196 1.97744 20.2977 3.92625C21.3441 3.71505 22.3535 3.31184 23.2704 2.74544C22.9185 3.86865 22.1869 4.81905 21.2145 5.42385C22.1406 5.30865 23.0481 5.04945 23.9001 4.66545C23.2704 5.64465 22.4739 6.48945 21.5571 7.18066Z"
          fill="currentColor"/>
</svg>
