<svg width="24" height="24" viewBox="0 0 24 24" fill="none" xmlns="http://www.w3.org/2000/svg">
    <g clip-path="url(#clip0_36_1660)">
        <path fill-rule="evenodd" clip-rule="evenodd"
              d="M11.9957 0.600098C9.16469 0.601567 6.4265 1.60426 4.27075 3.42888C2.11501 5.25351 0.682284 7.78108 0.228769 10.5597C-0.224746 13.3382 0.330513 16.1866 1.79527 18.5954C3.26003 21.0043 5.53877 22.8166 8.22402 23.7082C8.81643 23.8181 9.03958 23.451 9.03958 23.1388C9.03958 22.8266 9.02773 21.9214 9.02378 20.9318C5.70628 21.6485 5.00526 19.5319 5.00526 19.5319C4.46419 18.1575 3.68221 17.7962 3.68221 17.7962C2.60007 17.0618 3.76318 17.0756 3.76318 17.0756C4.96182 17.16 5.59175 18.2988 5.59175 18.2988C6.65414 20.1111 8.382 19.5869 9.0613 19.2806C9.16793 18.5128 9.47796 17.9906 9.81959 17.6941C7.16954 17.3956 4.3852 16.3785 4.3852 11.8351C4.36878 10.6568 4.80853 9.51724 5.61347 8.65229C5.49104 8.35385 5.08227 7.14827 5.72997 5.51074C5.72997 5.51074 6.73116 5.19266 9.00996 6.72613C10.9646 6.19464 13.0268 6.19464 14.9815 6.72613C17.2583 5.19266 18.2575 5.51074 18.2575 5.51074C18.9072 7.14435 18.4984 8.34992 18.376 8.65229C19.1835 9.51738 19.6241 10.6589 19.6062 11.839C19.6062 16.3923 16.816 17.3956 14.162 17.6882C14.5885 18.0573 14.9696 18.7779 14.9696 19.8853C14.9696 21.4718 14.9558 22.748 14.9558 23.1388C14.9558 23.4549 15.171 23.824 15.7753 23.7082C18.4609 22.8165 20.7398 21.0039 22.2046 18.5946C23.6693 16.1853 24.2243 13.3365 23.7702 10.5577C23.3162 7.77889 21.8828 5.25129 19.7263 3.42698C17.5698 1.60267 14.831 0.600635 11.9997 0.600098H11.9957Z"
              fill="#191717"/>
        <path d="M4.58631 17.6252C4.56064 17.6842 4.46585 17.7018 4.38884 17.6606C4.31183 17.6194 4.25456 17.5428 4.28221 17.4819C4.30985 17.421 4.40267 17.4053 4.47968 17.4466C4.55669 17.4878 4.61593 17.5663 4.58631 17.6252Z"
              fill="#191717"/>
        <path d="M5.07027 18.1613C5.02938 18.1818 4.98259 18.1875 4.93792 18.1774C4.89326 18.1674 4.85349 18.1423 4.82541 18.1063C4.7484 18.0238 4.73259 17.9099 4.79183 17.8589C4.85107 17.8078 4.95772 17.8314 5.03473 17.9139C5.11174 17.9963 5.12951 18.1102 5.07027 18.1613Z"
              fill="#191717"/>
        <path d="M5.54016 18.8428C5.46709 18.8938 5.34268 18.8428 5.27357 18.7407C5.25446 18.7224 5.23926 18.7004 5.22888 18.6761C5.21849 18.6518 5.21313 18.6257 5.21313 18.5993C5.21313 18.5729 5.21849 18.5468 5.22888 18.5225C5.23926 18.4982 5.25446 18.4763 5.27357 18.4579C5.34663 18.4089 5.47104 18.4579 5.54016 18.5581C5.60927 18.6582 5.61125 18.7917 5.54016 18.8428Z"
              fill="#191717"/>
        <path d="M6.17796 19.5024C6.1128 19.5751 5.9805 19.5554 5.87189 19.4573C5.76328 19.3591 5.7376 19.2256 5.80277 19.1549C5.86793 19.0842 6.00024 19.1039 6.1128 19.2001C6.22535 19.2963 6.24708 19.4317 6.17796 19.5024Z"
              fill="#191717"/>
        <path d="M7.07258 19.8872C7.04296 19.9795 6.90868 20.0207 6.7744 19.9815C6.64012 19.9422 6.55126 19.8322 6.57693 19.738C6.6026 19.6438 6.73886 19.6006 6.87511 19.6438C7.01136 19.6869 7.09825 19.791 7.07258 19.8872Z"
              fill="#191717"/>
        <path d="M8.04806 19.9541C8.04806 20.0503 7.93749 20.1327 7.79531 20.1347C7.65313 20.1367 7.53662 20.0581 7.53662 19.9619C7.53662 19.8657 7.6472 19.7833 7.78938 19.7813C7.93156 19.7793 8.04806 19.8559 8.04806 19.9541Z"
              fill="#191717"/>
        <path d="M8.95628 19.8028C8.97405 19.899 8.87532 19.9991 8.73314 20.0227C8.59096 20.0463 8.46655 19.9893 8.44878 19.8951C8.43101 19.8008 8.53369 19.6987 8.67192 19.6732C8.81015 19.6477 8.93851 19.7066 8.95628 19.8028Z"
              fill="#191717"/>
    </g>
    <defs>
        <clipPath id="clip0_36_1660">
            <rect width="24" height="24" rx="6" fill="white"/>
        </clipPath>
    </defs>
</svg>
